<svg xmlns="http://www.w3.org/2000/svg" viewBox="0 0 220 72" role="img" aria-labelledby="title">
  <title id="title">Vipps</title>
  <rect width="220" height="72" rx="20" fill="#FF5B24"/>
  <path fill="#fff" d="M37.2 49.8 24.8 22.2h9.1l7.6 18.9 7.7-18.9h8.8L45.6 49.8h-8.4Zm25.1 0V22.2h8.2v27.6h-8.2Zm4.1-31.2c-2.7 0-4.8-2-4.8-4.6s2.1-4.6 4.8-4.6 4.8 2 4.8 4.6-2.1 4.6-4.8 4.6Zm13.2 40.9V22.2h7.8v3.1c1.8-2.3 4.6-3.8 8.1-3.8 7.4 0 12.8 6 12.8 14.4s-5.4 14.5-12.8 14.5c-3.2 0-5.9-1.2-7.8-3.4v12.5h-8.1Zm14.2-16.3c3.8 0 6.5-3 6.5-7.3s-2.7-7.2-6.5-7.2-6.4 3-6.4 7.2 2.7 7.3 6.4 7.3Zm21.3 16.3V22.2h7.8v3.1c1.8-2.3 4.6-3.8 8.1-3.8 7.4 0 12.8 6 12.8 14.4s-5.4 14.5-12.8 14.5c-3.2 0-5.9-1.2-7.8-3.4v12.5h-8.1Zm14.2-16.3c3.8 0 6.5-3 6.5-7.3s-2.7-7.2-6.5-7.2-6.4 3-6.4 7.2 2.7 7.3 6.4 7.3Zm29.9 7.2c-5 0-9.3-1.5-12.2-3.8l3.1-6c2.6 2 6.1 3.2 9.4 3.2 2.7 0 4-.7 4-2 0-3.8-15.6.1-15.6-11.3 0-5.3 4.8-9 12.5-9 4 0 8.2.9 11.1 2.8l-3.1 5.9c-2.8-1.7-5.6-2.3-8-2.3-2.8 0-4.1.9-4.1 2.1 0 4 15.6.1 15.6 11.4 0 5.2-4.8 9-12.7 9Zm33.9 0c-5 0-9.3-1.5-12.2-3.8l3.1-6c2.6 2 6.1 3.2 9.4 3.2 2.7 0 4-.7 4-2 0-3.8-15.6.1-15.6-11.3 0-5.3 4.8-9 12.5-9 4 0 8.2.9 11.1 2.8l-3.1 5.9c-2.8-1.7-5.6-2.3-8-2.3-2.8 0-4.1.9-4.1 2.1 0 4 15.6.1 15.6 11.4 0 5.2-4.8 9-12.7 9Z"/>
</svg>
